<mxfile host="app.diagrams.net" agent="Mozilla/5.0 (Windows NT 10.0; Win64; x64) AppleWebKit/537.36 (KHTML, like Gecko) Chrome/130.0.0.0 Safari/537.36 Edg/130.0.0.0" version="24.8.6">
  <diagram name="Page-1" id="kfkrQ2FwGlYPqHbJnXdd">
    <mxGraphModel dx="2490" dy="1535" grid="1" gridSize="10" guides="1" tooltips="1" connect="1" arrows="1" fold="1" page="1" pageScale="1" pageWidth="850" pageHeight="1100" math="0" shadow="0">
      <root>
        <mxCell id="0" />
        <mxCell id="1" parent="0" />
        <mxCell id="1JBKfC5vDP6usxYN7YwJ-2" value="INIT" style="ellipse;whiteSpace=wrap;html=1;aspect=fixed;" parent="1" vertex="1">
          <mxGeometry x="80" y="80" width="80" height="80" as="geometry" />
        </mxCell>
        <mxCell id="1JBKfC5vDP6usxYN7YwJ-3" value="state1 = RED&lt;br&gt;&lt;br&gt;state2=GREEN" style="ellipse;whiteSpace=wrap;html=1;aspect=fixed;" parent="1" vertex="1">
          <mxGeometry x="210" y="70" width="100" height="100" as="geometry" />
        </mxCell>
        <mxCell id="1JBKfC5vDP6usxYN7YwJ-4" value="state1=RED&lt;br&gt;&lt;br&gt;state2=YELLOW" style="ellipse;whiteSpace=wrap;html=1;aspect=fixed;" parent="1" vertex="1">
          <mxGeometry x="375" y="70" width="100" height="100" as="geometry" />
        </mxCell>
        <mxCell id="1JBKfC5vDP6usxYN7YwJ-5" value="state1=GREEN&lt;br&gt;&lt;br&gt;state2=RED" style="ellipse;whiteSpace=wrap;html=1;aspect=fixed;" parent="1" vertex="1">
          <mxGeometry x="540" y="70" width="100" height="100" as="geometry" />
        </mxCell>
        <mxCell id="1JBKfC5vDP6usxYN7YwJ-6" value="state1=YELLOW&lt;br&gt;&lt;br&gt;state2 = RED" style="ellipse;whiteSpace=wrap;html=1;aspect=fixed;" parent="1" vertex="1">
          <mxGeometry x="710" y="70" width="100" height="100" as="geometry" />
        </mxCell>
        <mxCell id="1JBKfC5vDP6usxYN7YwJ-7" value="" style="endArrow=classic;html=1;rounded=0;entryX=0;entryY=0.5;entryDx=0;entryDy=0;exitX=1;exitY=0.5;exitDx=0;exitDy=0;" parent="1" source="1JBKfC5vDP6usxYN7YwJ-2" target="1JBKfC5vDP6usxYN7YwJ-3" edge="1">
          <mxGeometry width="50" height="50" relative="1" as="geometry">
            <mxPoint x="160" y="130" as="sourcePoint" />
            <mxPoint x="210" y="80" as="targetPoint" />
          </mxGeometry>
        </mxCell>
        <mxCell id="1JBKfC5vDP6usxYN7YwJ-8" value="" style="endArrow=classic;html=1;rounded=0;entryX=0;entryY=0.5;entryDx=0;entryDy=0;exitX=1;exitY=0.5;exitDx=0;exitDy=0;" parent="1" target="1JBKfC5vDP6usxYN7YwJ-4" edge="1">
          <mxGeometry width="50" height="50" relative="1" as="geometry">
            <mxPoint x="310" y="119.5" as="sourcePoint" />
            <mxPoint x="360" y="119.5" as="targetPoint" />
          </mxGeometry>
        </mxCell>
        <mxCell id="1JBKfC5vDP6usxYN7YwJ-10" value="" style="endArrow=classic;html=1;rounded=0;entryX=0;entryY=0.5;entryDx=0;entryDy=0;exitX=1;exitY=0.5;exitDx=0;exitDy=0;" parent="1" source="1JBKfC5vDP6usxYN7YwJ-4" target="1JBKfC5vDP6usxYN7YwJ-5" edge="1">
          <mxGeometry width="50" height="50" relative="1" as="geometry">
            <mxPoint x="480" y="120" as="sourcePoint" />
            <mxPoint x="510" y="119.5" as="targetPoint" />
          </mxGeometry>
        </mxCell>
        <mxCell id="1JBKfC5vDP6usxYN7YwJ-11" value="" style="endArrow=classic;html=1;rounded=0;exitX=1;exitY=0.5;exitDx=0;exitDy=0;" parent="1" edge="1">
          <mxGeometry width="50" height="50" relative="1" as="geometry">
            <mxPoint x="640" y="119.52" as="sourcePoint" />
            <mxPoint x="710" y="119.52" as="targetPoint" />
          </mxGeometry>
        </mxCell>
        <mxCell id="1JBKfC5vDP6usxYN7YwJ-16" value="count2 == 0" style="text;html=1;align=center;verticalAlign=middle;resizable=0;points=[];autosize=1;strokeColor=none;fillColor=none;" parent="1" vertex="1">
          <mxGeometry x="295" y="90" width="90" height="30" as="geometry" />
        </mxCell>
        <mxCell id="1JBKfC5vDP6usxYN7YwJ-17" value="count1==0" style="text;html=1;align=center;verticalAlign=middle;resizable=0;points=[];autosize=1;strokeColor=none;fillColor=none;" parent="1" vertex="1">
          <mxGeometry x="465" y="90" width="80" height="30" as="geometry" />
        </mxCell>
        <mxCell id="1JBKfC5vDP6usxYN7YwJ-18" value="count1==0" style="text;html=1;align=center;verticalAlign=middle;resizable=0;points=[];autosize=1;strokeColor=none;fillColor=none;" parent="1" vertex="1">
          <mxGeometry x="635" y="90" width="80" height="30" as="geometry" />
        </mxCell>
        <mxCell id="1JBKfC5vDP6usxYN7YwJ-19" value="count2&lt;span style=&quot;background-color: initial;&quot;&gt;==0&lt;/span&gt;" style="text;html=1;align=center;verticalAlign=middle;resizable=0;points=[];autosize=1;strokeColor=none;fillColor=none;" parent="1" vertex="1">
          <mxGeometry x="285" y="160" width="80" height="30" as="geometry" />
        </mxCell>
        <mxCell id="1JBKfC5vDP6usxYN7YwJ-20" value="" style="curved=1;endArrow=classic;html=1;rounded=0;exitX=0.5;exitY=1;exitDx=0;exitDy=0;entryX=0.5;entryY=1;entryDx=0;entryDy=0;" parent="1" source="1JBKfC5vDP6usxYN7YwJ-6" target="1JBKfC5vDP6usxYN7YwJ-3" edge="1">
          <mxGeometry width="50" height="50" relative="1" as="geometry">
            <mxPoint x="740" y="230" as="sourcePoint" />
            <mxPoint x="460" y="210" as="targetPoint" />
            <Array as="points">
              <mxPoint x="570" y="210" />
              <mxPoint x="390" y="210" />
            </Array>
          </mxGeometry>
        </mxCell>
        <mxCell id="1JBKfC5vDP6usxYN7YwJ-21" value="" style="endArrow=classic;html=1;rounded=0;" parent="1" edge="1">
          <mxGeometry width="50" height="50" relative="1" as="geometry">
            <mxPoint x="260" y="170" as="sourcePoint" />
            <mxPoint x="260" y="260" as="targetPoint" />
          </mxGeometry>
        </mxCell>
        <mxCell id="1JBKfC5vDP6usxYN7YwJ-22" value="" style="endArrow=classic;html=1;rounded=0;exitX=0.5;exitY=1;exitDx=0;exitDy=0;" parent="1" source="1JBKfC5vDP6usxYN7YwJ-4" edge="1">
          <mxGeometry width="50" height="50" relative="1" as="geometry">
            <mxPoint x="480" y="220" as="sourcePoint" />
            <mxPoint x="260" y="260" as="targetPoint" />
          </mxGeometry>
        </mxCell>
        <mxCell id="1JBKfC5vDP6usxYN7YwJ-23" value="" style="endArrow=classic;html=1;rounded=0;exitX=0.5;exitY=1;exitDx=0;exitDy=0;" parent="1" source="1JBKfC5vDP6usxYN7YwJ-5" edge="1">
          <mxGeometry width="50" height="50" relative="1" as="geometry">
            <mxPoint x="480" y="220" as="sourcePoint" />
            <mxPoint x="260" y="260" as="targetPoint" />
          </mxGeometry>
        </mxCell>
        <mxCell id="1JBKfC5vDP6usxYN7YwJ-24" value="" style="endArrow=classic;html=1;rounded=0;" parent="1" edge="1">
          <mxGeometry width="50" height="50" relative="1" as="geometry">
            <mxPoint x="760" y="170" as="sourcePoint" />
            <mxPoint x="260" y="260" as="targetPoint" />
          </mxGeometry>
        </mxCell>
        <mxCell id="1JBKfC5vDP6usxYN7YwJ-25" value="BUTTON_1" style="text;html=1;align=center;verticalAlign=middle;whiteSpace=wrap;rounded=0;" parent="1" vertex="1">
          <mxGeometry x="225" y="210" width="110" height="30" as="geometry" />
        </mxCell>
        <mxCell id="1JBKfC5vDP6usxYN7YwJ-26" value="RED_MANUAL" style="ellipse;whiteSpace=wrap;html=1;aspect=fixed;" parent="1" vertex="1">
          <mxGeometry x="210" y="260" width="100" height="100" as="geometry" />
        </mxCell>
        <mxCell id="1JBKfC5vDP6usxYN7YwJ-31" value="" style="endArrow=classic;html=1;rounded=0;exitX=1.028;exitY=0.608;exitDx=0;exitDy=0;exitPerimeter=0;" parent="1" source="1JBKfC5vDP6usxYN7YwJ-26" edge="1">
          <mxGeometry width="50" height="50" relative="1" as="geometry">
            <mxPoint x="450" y="350" as="sourcePoint" />
            <mxPoint x="400" y="320" as="targetPoint" />
          </mxGeometry>
        </mxCell>
        <mxCell id="1JBKfC5vDP6usxYN7YwJ-33" value="" style="endArrow=classic;html=1;rounded=0;exitX=0.5;exitY=1;exitDx=0;exitDy=0;" parent="1" source="1JBKfC5vDP6usxYN7YwJ-26" edge="1">
          <mxGeometry width="50" height="50" relative="1" as="geometry">
            <mxPoint x="330" y="400" as="sourcePoint" />
            <mxPoint x="260" y="420" as="targetPoint" />
          </mxGeometry>
        </mxCell>
        <mxCell id="1JBKfC5vDP6usxYN7YwJ-35" value="YELLOW_MANUAL" style="ellipse;whiteSpace=wrap;html=1;aspect=fixed;" parent="1" vertex="1">
          <mxGeometry x="210" y="420" width="100" height="100" as="geometry" />
        </mxCell>
        <mxCell id="1JBKfC5vDP6usxYN7YwJ-36" value="" style="endArrow=classic;html=1;rounded=0;exitX=0.5;exitY=1;exitDx=0;exitDy=0;" parent="1" edge="1">
          <mxGeometry width="50" height="50" relative="1" as="geometry">
            <mxPoint x="260" y="520" as="sourcePoint" />
            <mxPoint x="260" y="580" as="targetPoint" />
          </mxGeometry>
        </mxCell>
        <mxCell id="1JBKfC5vDP6usxYN7YwJ-38" value="GREEN_MANUAL" style="ellipse;whiteSpace=wrap;html=1;aspect=fixed;" parent="1" vertex="1">
          <mxGeometry x="210" y="580" width="100" height="100" as="geometry" />
        </mxCell>
        <mxCell id="1JBKfC5vDP6usxYN7YwJ-40" value="" style="endArrow=classic;html=1;rounded=0;exitX=1;exitY=0.5;exitDx=0;exitDy=0;" parent="1" source="1JBKfC5vDP6usxYN7YwJ-35" edge="1">
          <mxGeometry width="50" height="50" relative="1" as="geometry">
            <mxPoint x="300" y="430" as="sourcePoint" />
            <mxPoint x="400" y="470" as="targetPoint" />
          </mxGeometry>
        </mxCell>
        <mxCell id="1JBKfC5vDP6usxYN7YwJ-41" value="" style="endArrow=classic;html=1;rounded=0;exitX=1;exitY=0.5;exitDx=0;exitDy=0;" parent="1" source="1JBKfC5vDP6usxYN7YwJ-38" edge="1">
          <mxGeometry width="50" height="50" relative="1" as="geometry">
            <mxPoint x="380" y="560" as="sourcePoint" />
            <mxPoint x="400" y="630" as="targetPoint" />
          </mxGeometry>
        </mxCell>
        <mxCell id="1JBKfC5vDP6usxYN7YwJ-42" value="Update&lt;br&gt;RED" style="ellipse;whiteSpace=wrap;html=1;aspect=fixed;" parent="1" vertex="1">
          <mxGeometry x="400" y="270" width="90" height="90" as="geometry" />
        </mxCell>
        <mxCell id="1JBKfC5vDP6usxYN7YwJ-43" value="Update&lt;br&gt;YELLOW" style="ellipse;whiteSpace=wrap;html=1;aspect=fixed;" parent="1" vertex="1">
          <mxGeometry x="400" y="420" width="90" height="90" as="geometry" />
        </mxCell>
        <mxCell id="1JBKfC5vDP6usxYN7YwJ-44" value="Update&lt;br&gt;GREEN" style="ellipse;whiteSpace=wrap;html=1;aspect=fixed;" parent="1" vertex="1">
          <mxGeometry x="400" y="585" width="90" height="90" as="geometry" />
        </mxCell>
        <mxCell id="1JBKfC5vDP6usxYN7YwJ-45" value="BUTTON_&lt;span style=&quot;background-color: initial;&quot;&gt;2&lt;/span&gt;&lt;div&gt;&lt;div&gt;&lt;br&gt;&lt;/div&gt;&lt;/div&gt;" style="text;html=1;align=center;verticalAlign=middle;whiteSpace=wrap;rounded=0;" parent="1" vertex="1">
          <mxGeometry x="320" y="300" width="70" height="30" as="geometry" />
        </mxCell>
        <mxCell id="1JBKfC5vDP6usxYN7YwJ-49" value="" style="endArrow=classic;html=1;rounded=0;exitX=1;exitY=0.5;exitDx=0;exitDy=0;" parent="1" edge="1">
          <mxGeometry width="50" height="50" relative="1" as="geometry">
            <mxPoint x="490" y="469.77" as="sourcePoint" />
            <mxPoint x="560" y="469.77" as="targetPoint" />
          </mxGeometry>
        </mxCell>
        <mxCell id="1JBKfC5vDP6usxYN7YwJ-50" value="" style="endArrow=classic;html=1;rounded=0;exitX=1;exitY=0.5;exitDx=0;exitDy=0;" parent="1" edge="1">
          <mxGeometry width="50" height="50" relative="1" as="geometry">
            <mxPoint x="490" y="629.77" as="sourcePoint" />
            <mxPoint x="560" y="629.77" as="targetPoint" />
          </mxGeometry>
        </mxCell>
        <mxCell id="1JBKfC5vDP6usxYN7YwJ-51" value="Set RED" style="ellipse;whiteSpace=wrap;html=1;aspect=fixed;" parent="1" vertex="1">
          <mxGeometry x="560" y="267.5" width="95" height="95" as="geometry" />
        </mxCell>
        <mxCell id="1JBKfC5vDP6usxYN7YwJ-52" value="Set YELLOW" style="ellipse;whiteSpace=wrap;html=1;aspect=fixed;" parent="1" vertex="1">
          <mxGeometry x="560" y="420" width="95" height="95" as="geometry" />
        </mxCell>
        <mxCell id="1JBKfC5vDP6usxYN7YwJ-53" value="Set GREEN" style="ellipse;whiteSpace=wrap;html=1;aspect=fixed;" parent="1" vertex="1">
          <mxGeometry x="560" y="580" width="95" height="95" as="geometry" />
        </mxCell>
        <mxCell id="1JBKfC5vDP6usxYN7YwJ-68" value="" style="curved=1;endArrow=classic;html=1;rounded=0;exitX=0;exitY=0.5;exitDx=0;exitDy=0;entryX=0.5;entryY=1;entryDx=0;entryDy=0;" parent="1" source="1JBKfC5vDP6usxYN7YwJ-38" target="1JBKfC5vDP6usxYN7YwJ-3" edge="1">
          <mxGeometry width="50" height="50" relative="1" as="geometry">
            <mxPoint x="290" y="480" as="sourcePoint" />
            <mxPoint x="120" y="330" as="targetPoint" />
            <Array as="points">
              <mxPoint x="130" y="580" />
              <mxPoint x="90" y="430" />
              <mxPoint x="140" y="230" />
            </Array>
          </mxGeometry>
        </mxCell>
        <mxCell id="1JBKfC5vDP6usxYN7YwJ-70" value="" style="endArrow=classic;html=1;rounded=0;exitX=0.5;exitY=1;exitDx=0;exitDy=0;entryX=0.5;entryY=0;entryDx=0;entryDy=0;" parent="1" source="1JBKfC5vDP6usxYN7YwJ-42" target="1JBKfC5vDP6usxYN7YwJ-35" edge="1">
          <mxGeometry width="50" height="50" relative="1" as="geometry">
            <mxPoint x="380" y="430" as="sourcePoint" />
            <mxPoint x="430" y="380" as="targetPoint" />
          </mxGeometry>
        </mxCell>
        <mxCell id="1JBKfC5vDP6usxYN7YwJ-71" value="" style="endArrow=classic;html=1;rounded=0;exitX=0.5;exitY=1;exitDx=0;exitDy=0;entryX=0.5;entryY=0;entryDx=0;entryDy=0;" parent="1" source="1JBKfC5vDP6usxYN7YwJ-51" target="1JBKfC5vDP6usxYN7YwJ-35" edge="1">
          <mxGeometry width="50" height="50" relative="1" as="geometry">
            <mxPoint x="380" y="430" as="sourcePoint" />
            <mxPoint x="430" y="380" as="targetPoint" />
          </mxGeometry>
        </mxCell>
        <mxCell id="1JBKfC5vDP6usxYN7YwJ-72" value="" style="endArrow=classic;html=1;rounded=0;exitX=0.5;exitY=1;exitDx=0;exitDy=0;entryX=0.5;entryY=0;entryDx=0;entryDy=0;" parent="1" source="1JBKfC5vDP6usxYN7YwJ-43" target="1JBKfC5vDP6usxYN7YwJ-38" edge="1">
          <mxGeometry width="50" height="50" relative="1" as="geometry">
            <mxPoint x="390" y="500" as="sourcePoint" />
            <mxPoint x="440" y="450" as="targetPoint" />
          </mxGeometry>
        </mxCell>
        <mxCell id="1JBKfC5vDP6usxYN7YwJ-73" value="" style="endArrow=classic;html=1;rounded=0;exitX=0.5;exitY=1;exitDx=0;exitDy=0;entryX=0.5;entryY=0;entryDx=0;entryDy=0;" parent="1" source="1JBKfC5vDP6usxYN7YwJ-52" target="1JBKfC5vDP6usxYN7YwJ-38" edge="1">
          <mxGeometry width="50" height="50" relative="1" as="geometry">
            <mxPoint x="390" y="500" as="sourcePoint" />
            <mxPoint x="440" y="450" as="targetPoint" />
          </mxGeometry>
        </mxCell>
        <mxCell id="vokeBechyFXCn6L4Q7OB-1" value="BUTTON_3&lt;div&gt;&lt;div&gt;&lt;br&gt;&lt;/div&gt;&lt;/div&gt;" style="text;html=1;align=center;verticalAlign=middle;whiteSpace=wrap;rounded=0;" vertex="1" parent="1">
          <mxGeometry x="490" y="290" width="70" height="30" as="geometry" />
        </mxCell>
        <mxCell id="vokeBechyFXCn6L4Q7OB-3" value="" style="endArrow=classic;html=1;rounded=0;exitX=1;exitY=0.5;exitDx=0;exitDy=0;entryX=0;entryY=0.5;entryDx=0;entryDy=0;" edge="1" parent="1" source="1JBKfC5vDP6usxYN7YwJ-42" target="1JBKfC5vDP6usxYN7YwJ-51">
          <mxGeometry width="50" height="50" relative="1" as="geometry">
            <mxPoint x="380" y="380" as="sourcePoint" />
            <mxPoint x="430" y="330" as="targetPoint" />
            <Array as="points">
              <mxPoint x="510" y="315" />
              <mxPoint x="530" y="315" />
              <mxPoint x="550" y="315" />
            </Array>
          </mxGeometry>
        </mxCell>
        <mxCell id="vokeBechyFXCn6L4Q7OB-5" value="BUTTON_&lt;span style=&quot;forced-color-adjust: none; background-color: initial;&quot;&gt;2&lt;/span&gt;&lt;div style=&quot;forced-color-adjust: none;&quot;&gt;&lt;div style=&quot;forced-color-adjust: none;&quot;&gt;&lt;br style=&quot;forced-color-adjust: none; color: rgb(0, 0, 0); font-family: Helvetica; font-size: 12px; font-style: normal; font-variant-ligatures: normal; font-variant-caps: normal; font-weight: 400; letter-spacing: normal; orphans: 2; text-align: center; text-indent: 0px; text-transform: none; widows: 2; word-spacing: 0px; -webkit-text-stroke-width: 0px; white-space: normal; background-color: rgb(251, 251, 251); text-decoration-thickness: initial; text-decoration-style: initial; text-decoration-color: initial;&quot;&gt;&#xa;&#xa;&lt;/div&gt;&lt;/div&gt;" style="text;whiteSpace=wrap;html=1;" vertex="1" parent="1">
          <mxGeometry x="320" y="435" width="70" height="30" as="geometry" />
        </mxCell>
        <mxCell id="vokeBechyFXCn6L4Q7OB-6" value="BUTTON_&lt;span style=&quot;forced-color-adjust: none; background-color: initial;&quot;&gt;2&lt;/span&gt;&lt;div style=&quot;forced-color-adjust: none;&quot;&gt;&lt;div style=&quot;forced-color-adjust: none;&quot;&gt;&lt;br style=&quot;forced-color-adjust: none; color: rgb(0, 0, 0); font-family: Helvetica; font-size: 12px; font-style: normal; font-variant-ligatures: normal; font-variant-caps: normal; font-weight: 400; letter-spacing: normal; orphans: 2; text-align: center; text-indent: 0px; text-transform: none; widows: 2; word-spacing: 0px; -webkit-text-stroke-width: 0px; white-space: normal; background-color: rgb(251, 251, 251); text-decoration-thickness: initial; text-decoration-style: initial; text-decoration-color: initial;&quot;&gt;&#xa;&#xa;&lt;/div&gt;&lt;/div&gt;" style="text;whiteSpace=wrap;html=1;" vertex="1" parent="1">
          <mxGeometry x="315" y="595" width="70" height="30" as="geometry" />
        </mxCell>
        <mxCell id="vokeBechyFXCn6L4Q7OB-7" value="BUTTON_3&lt;div&gt;&lt;div&gt;&lt;br&gt;&lt;/div&gt;&lt;/div&gt;" style="text;html=1;align=center;verticalAlign=middle;whiteSpace=wrap;rounded=0;" vertex="1" parent="1">
          <mxGeometry x="490" y="450" width="70" height="30" as="geometry" />
        </mxCell>
        <mxCell id="vokeBechyFXCn6L4Q7OB-8" value="BUTTON_3&lt;div&gt;&lt;div&gt;&lt;br&gt;&lt;/div&gt;&lt;/div&gt;" style="text;html=1;align=center;verticalAlign=middle;whiteSpace=wrap;rounded=0;" vertex="1" parent="1">
          <mxGeometry x="490" y="612.5" width="70" height="30" as="geometry" />
        </mxCell>
        <mxCell id="vokeBechyFXCn6L4Q7OB-9" value="BUTTON_1" style="text;html=1;align=center;verticalAlign=middle;whiteSpace=wrap;rounded=0;" vertex="1" parent="1">
          <mxGeometry x="205" y="370" width="110" height="30" as="geometry" />
        </mxCell>
        <mxCell id="vokeBechyFXCn6L4Q7OB-10" value="BUTTON_1" style="text;html=1;align=center;verticalAlign=middle;whiteSpace=wrap;rounded=0;" vertex="1" parent="1">
          <mxGeometry x="205" y="530" width="110" height="30" as="geometry" />
        </mxCell>
        <mxCell id="vokeBechyFXCn6L4Q7OB-11" value="BUTTON_1" style="text;html=1;align=center;verticalAlign=middle;whiteSpace=wrap;rounded=0;rotation=-15;" vertex="1" parent="1">
          <mxGeometry x="310" y="510" width="110" height="30" as="geometry" />
        </mxCell>
        <mxCell id="vokeBechyFXCn6L4Q7OB-12" value="BUTTON_1" style="text;html=1;align=center;verticalAlign=middle;whiteSpace=wrap;rounded=0;rotation=-15;" vertex="1" parent="1">
          <mxGeometry x="420" y="520" width="110" height="30" as="geometry" />
        </mxCell>
        <mxCell id="vokeBechyFXCn6L4Q7OB-13" value="BUTTON_1" style="text;html=1;align=center;verticalAlign=middle;whiteSpace=wrap;rounded=0;rotation=-15;" vertex="1" parent="1">
          <mxGeometry x="295" y="357.5" width="110" height="30" as="geometry" />
        </mxCell>
        <mxCell id="vokeBechyFXCn6L4Q7OB-14" value="BUTTON_1" style="text;html=1;align=center;verticalAlign=middle;whiteSpace=wrap;rounded=0;rotation=-15;" vertex="1" parent="1">
          <mxGeometry x="450" y="350" width="110" height="30" as="geometry" />
        </mxCell>
        <mxCell id="vokeBechyFXCn6L4Q7OB-15" value="BUTTON_1" style="text;html=1;align=center;verticalAlign=middle;whiteSpace=wrap;rounded=0;" vertex="1" parent="1">
          <mxGeometry x="80" y="390" width="110" height="30" as="geometry" />
        </mxCell>
        <mxCell id="vokeBechyFXCn6L4Q7OB-21" value="" style="endArrow=none;html=1;rounded=0;exitX=0.5;exitY=1;exitDx=0;exitDy=0;" edge="1" parent="1" source="1JBKfC5vDP6usxYN7YwJ-44">
          <mxGeometry width="50" height="50" relative="1" as="geometry">
            <mxPoint x="490" y="600" as="sourcePoint" />
            <mxPoint x="200" y="740" as="targetPoint" />
            <Array as="points">
              <mxPoint x="445" y="740" />
            </Array>
          </mxGeometry>
        </mxCell>
        <mxCell id="vokeBechyFXCn6L4Q7OB-22" value="" style="endArrow=none;html=1;rounded=0;" edge="1" parent="1">
          <mxGeometry width="50" height="50" relative="1" as="geometry">
            <mxPoint x="200" y="740" as="sourcePoint" />
            <mxPoint x="130" y="550" as="targetPoint" />
          </mxGeometry>
        </mxCell>
        <mxCell id="vokeBechyFXCn6L4Q7OB-23" value="" style="endArrow=none;html=1;rounded=0;exitX=0.5;exitY=1;exitDx=0;exitDy=0;" edge="1" parent="1" source="1JBKfC5vDP6usxYN7YwJ-53">
          <mxGeometry width="50" height="50" relative="1" as="geometry">
            <mxPoint x="380" y="550" as="sourcePoint" />
            <mxPoint x="608" y="740" as="targetPoint" />
          </mxGeometry>
        </mxCell>
        <mxCell id="vokeBechyFXCn6L4Q7OB-24" value="" style="endArrow=none;html=1;rounded=0;" edge="1" parent="1">
          <mxGeometry width="50" height="50" relative="1" as="geometry">
            <mxPoint x="610" y="740" as="sourcePoint" />
            <mxPoint x="440" y="740" as="targetPoint" />
          </mxGeometry>
        </mxCell>
      </root>
    </mxGraphModel>
  </diagram>
</mxfile>
